<svg width="40" height="41" viewBox="0 0 40 41" fill="none" xmlns="http://www.w3.org/2000/svg">
<path d="M32 20.0193C32.0005 17.726 31.3438 15.4805 30.1077 13.5488C28.8716 11.617 27.1078 10.08 25.0252 9.1196C22.9426 8.15921 20.6284 7.81572 18.3566 8.12979C16.0849 8.44386 13.9507 9.40234 12.2068 10.8917C10.4628 12.3811 9.18225 14.3391 8.51659 16.5337C7.85094 18.7284 7.82811 21.0678 8.45082 23.275C9.07352 25.4822 10.3157 27.4648 12.0302 28.9879C13.7447 30.5111 15.8598 31.511 18.125 31.8693V23.4873H15.079V20.0193H18.125V17.3743C18.0596 16.7571 18.1307 16.133 18.3333 15.5463C18.5359 14.9596 18.865 14.4246 19.2973 13.9792C19.7296 13.5338 20.2546 13.1889 20.835 12.969C21.4154 12.749 22.0371 12.6593 22.656 12.7063C23.556 12.7183 24.454 12.7963 25.343 12.9403V15.8973H23.831C23.5734 15.8636 23.3115 15.8882 23.0648 15.9693C22.818 16.0505 22.5926 16.1861 22.4053 16.3662C22.2181 16.5462 22.0737 16.7661 21.983 17.0095C21.8922 17.2529 21.8573 17.5136 21.881 17.7723V20.0223H25.209L24.677 23.4903H21.875V31.8773C24.6984 31.4307 27.2697 29.9908 29.1259 27.8169C30.9821 25.643 32.0013 22.8779 32 20.0193Z" fill="white"/>
</svg>
