<svg width="40" height="41" viewBox="0 0 40 41" fill="none" xmlns="http://www.w3.org/2000/svg">
<path d="M27.2363 15.475C26.9662 15.745 26.6 15.8967 26.2181 15.8967C25.8361 15.8967 25.4699 15.745 25.1998 15.475C24.9297 15.2049 24.7781 14.8386 24.7781 14.4567C24.7781 14.0748 24.9297 13.7085 25.1998 13.4385C25.4699 13.1684 25.8361 13.0167 26.2181 13.0167C26.6 13.0167 26.9662 13.1684 27.2363 13.4385C27.5063 13.7085 27.6581 14.0748 27.6581 14.4567C27.6581 14.8386 27.5063 15.2049 27.2363 15.475Z" fill="white"/>
<path fill-rule="evenodd" clip-rule="evenodd" d="M14.0001 20.6187C14.0001 23.9277 16.691 26.6187 20.0001 26.6187C23.3091 26.6187 26.0001 23.9277 26.0001 20.6187C26.0001 17.3097 23.3091 14.6187 20.0001 14.6187C16.691 14.6187 14.0001 17.3097 14.0001 20.6187ZM17.0001 20.6187C17.0001 18.9637 18.345 17.6187 20.0001 17.6187C21.6551 17.6187 23.0001 18.9637 23.0001 20.6187C23.0001 22.2737 21.6551 23.6187 20.0001 23.6187C18.345 23.6187 17.0001 22.2737 17.0001 20.6187Z" fill="white"/>
<path fill-rule="evenodd" clip-rule="evenodd" d="M8.00006 26.0167C8.00006 29.1007 10.9161 32.0167 14.0001 32.0167H26.0001C29.084 32.0167 32.0001 29.1007 32.0001 26.0167V14.0167C32.0001 10.9327 29.084 8.01672 26.0001 8.01672H14.0001C10.9161 8.01672 8.00006 10.9327 8.00006 14.0167V26.0167ZM11.0001 14.0167C11.0001 12.6147 12.5981 11.0167 14.0001 11.0167H26.0001C27.402 11.0167 29.0001 12.6147 29.0001 14.0167V26.0167C29.0001 27.4187 27.402 29.0167 26.0001 29.0167H14.0001C12.5701 29.0167 11.0001 27.4467 11.0001 26.0167V14.0167Z" fill="white"/>
</svg>
