<svg width="28" height="29" viewBox="0 0 28 29" fill="none" xmlns="http://www.w3.org/2000/svg">
<path d="M20.5997 19.4496C19.451 20.5983 16.9847 23.0646 15.4138 24.6355C14.6327 25.4166 13.3679 25.4171 12.5868 24.6361C11.0427 23.0919 8.62595 20.6752 7.40036 19.4496C3.75546 15.8047 3.75546 9.89516 7.40036 6.25027C11.0453 2.60538 16.9548 2.60538 20.5997 6.25027C24.2446 9.89516 24.2446 15.8047 20.5997 19.4496Z" stroke="#16C79A" stroke-width="2" stroke-linecap="round" stroke-linejoin="round"/>
<path d="M17.5 12.8499C17.5 14.7829 15.933 16.3499 14 16.3499C12.067 16.3499 10.5 14.7829 10.5 12.8499C10.5 10.9169 12.067 9.34993 14 9.34993C15.933 9.34993 17.5 10.9169 17.5 12.8499Z" stroke="#16C79A" stroke-width="2" stroke-linecap="round" stroke-linejoin="round"/>
</svg>
