<svg width="58" height="19" viewBox="0 0 58 19" fill="none" xmlns="http://www.w3.org/2000/svg">
<path d="M0.92 18V0.36H4.184V18H0.92ZM13.6136 18.36C12.3096 18.36 11.1656 18.068 10.1816 17.484C9.19756 16.9 8.42956 16.096 7.87756 15.072C7.33356 14.04 7.06156 12.856 7.06156 11.52C7.06156 10.168 7.34156 8.98 7.90156 7.956C8.46156 6.924 9.23356 6.12 10.2176 5.544C11.2016 4.968 12.3336 4.68 13.6136 4.68C14.9176 4.68 16.0616 4.972 17.0456 5.556C18.0376 6.14 18.8096 6.948 19.3616 7.98C19.9136 9.004 20.1896 10.184 20.1896 11.52C20.1896 12.864 19.9096 14.052 19.3496 15.084C18.7976 16.108 18.0256 16.912 17.0336 17.496C16.0496 18.072 14.9096 18.36 13.6136 18.36ZM13.6136 15.312C14.6616 15.312 15.4416 14.96 15.9536 14.256C16.4736 13.544 16.7336 12.632 16.7336 11.52C16.7336 10.368 16.4696 9.448 15.9416 8.76C15.4216 8.072 14.6456 7.728 13.6136 7.728C12.9016 7.728 12.3176 7.888 11.8616 8.208C11.4056 8.528 11.0656 8.972 10.8416 9.54C10.6256 10.108 10.5176 10.768 10.5176 11.52C10.5176 12.68 10.7776 13.604 11.2976 14.292C11.8256 14.972 12.5976 15.312 13.6136 15.312ZM25.8637 18L21.1597 5.04H24.4237L27.4957 14.016L30.5677 5.04H33.8317L29.1277 18H25.8637ZM41.5556 18.36C40.2276 18.36 39.0556 18.076 38.0396 17.508C37.0316 16.932 36.2396 16.144 35.6636 15.144C35.0956 14.136 34.8116 12.984 34.8116 11.688C34.8116 10.272 35.0916 9.04 35.6516 7.992C36.2116 6.944 36.9836 6.132 37.9676 5.556C38.9516 4.972 40.0836 4.68 41.3636 4.68C42.7236 4.68 43.8796 5 44.8316 5.64C45.7836 6.28 46.4876 7.18 46.9436 8.34C47.3996 9.5 47.5596 10.864 47.4236 12.432H44.1956V11.232C44.1956 9.912 43.9836 8.964 43.5596 8.388C43.1436 7.804 42.4596 7.512 41.5076 7.512C40.3956 7.512 39.5756 7.852 39.0476 8.532C38.5276 9.204 38.2676 10.2 38.2676 11.52C38.2676 12.728 38.5276 13.664 39.0476 14.328C39.5756 14.984 40.3476 15.312 41.3636 15.312C42.0036 15.312 42.5516 15.172 43.0076 14.892C43.4636 14.612 43.8116 14.208 44.0516 13.68L47.3156 14.616C46.8276 15.8 46.0556 16.72 44.9996 17.376C43.9516 18.032 42.8036 18.36 41.5556 18.36ZM37.2596 12.432V10.008H45.8516V12.432H37.2596ZM57.1891 18C56.4611 18.152 55.7411 18.212 55.0291 18.18C54.3251 18.148 53.6931 17.996 53.1331 17.724C52.5811 17.452 52.1611 17.028 51.8731 16.452C51.6411 15.972 51.5131 15.488 51.4891 15C51.4731 14.504 51.4651 13.94 51.4651 13.308V1.44H53.2171V13.236C53.2171 13.78 53.2211 14.236 53.2291 14.604C53.2451 14.964 53.3291 15.284 53.4811 15.564C53.7691 16.1 54.2251 16.42 54.8491 16.524C55.4811 16.628 56.2611 16.604 57.1891 16.452V18ZM48.6931 6.552V5.04H57.1891V6.552H48.6931Z" fill="#19456B"/>
</svg>
