<svg width="40" height="41" viewBox="0 0 40 41" fill="none" xmlns="http://www.w3.org/2000/svg">
<path d="M32.0001 12.2666C31.1001 12.7166 30.2001 12.8666 29.1501 13.0166C30.2001 12.4166 30.9501 11.5166 31.2501 10.3166C30.3501 10.9166 29.3001 11.2166 28.1001 11.5166C27.2001 10.6166 25.8501 10.0166 24.5001 10.0166C21.9501 10.0166 19.7001 12.2666 19.7001 14.9666C19.7001 15.4166 19.7001 15.7166 19.8501 16.0166C15.8001 15.8666 12.0501 13.9166 9.65006 10.9166C9.20006 11.6666 9.05006 12.4166 9.05006 13.4666C9.05006 15.1166 9.95006 16.6166 11.3001 17.5166C10.5501 17.5166 9.80006 17.2166 9.05006 16.9166C9.05006 19.3166 10.7001 21.2666 12.9501 21.7166C12.5001 21.8666 12.0501 21.8666 11.6001 21.8666C11.3001 21.8666 11.0001 21.8666 10.7001 21.7166C11.3001 23.6666 13.1001 25.1666 15.3501 25.1666C13.7001 26.5166 11.6001 27.2666 9.20006 27.2666H8.00006C10.2501 28.6166 12.8001 29.5166 15.5001 29.5166C24.5001 29.5166 29.4501 22.0166 29.4501 15.5666V14.9666C30.5001 14.2166 31.4001 13.3166 32.0001 12.2666Z" fill="white"/>
</svg>
